<svg width="51" height="51" viewBox="0 0 51 51" fill="none" xmlns="http://www.w3.org/2000/svg">
<circle cx="25.5" cy="25.5" r="25.5" fill="#F2F2F2"/>
<g clip-path="url(#clip0_60_2651)">
<path d="M32.1685 15.0216H18.8323C17.5695 15.0231 16.3589 15.5254 15.466 16.4183C14.5731 17.3112 14.0708 18.5218 14.0693 19.7845V31.2156C14.0708 32.4783 14.5731 33.6889 15.466 34.5818C16.3589 35.4747 17.5695 35.977 18.8323 35.9785H32.1685C33.4312 35.977 34.6418 35.4747 35.5347 34.5818C36.4276 33.6889 36.9299 32.4783 36.9314 31.2156V19.7845C36.9299 18.5218 36.4276 17.3112 35.5347 16.4183C34.6418 15.5254 33.4312 15.0231 32.1685 15.0216ZM18.8323 16.9268H32.1685C32.7389 16.9279 33.2959 17.0997 33.7678 17.42C34.2398 17.7404 34.605 18.1946 34.8167 18.7243L27.5218 26.0202C26.9849 26.5549 26.2581 26.8551 25.5004 26.8551C24.7427 26.8551 24.0158 26.5549 23.479 26.0202L16.1841 18.7243C16.3957 18.1946 16.761 17.7404 17.2329 17.42C17.7049 17.0997 18.2619 16.9279 18.8323 16.9268ZM32.1685 34.0733H18.8323C18.0743 34.0733 17.3475 33.7722 16.8115 33.2363C16.2756 32.7004 15.9745 31.9735 15.9745 31.2156V21.2134L22.132 27.3671C23.0261 28.259 24.2375 28.7598 25.5004 28.7598C26.7633 28.7598 27.9746 28.259 28.8687 27.3671L35.0262 21.2134V31.2156C35.0262 31.9735 34.7251 32.7004 34.1892 33.2363C33.6533 33.7722 32.9264 34.0733 32.1685 34.0733Z" fill="#DD5B46"/>
</g>
<defs>
<clipPath id="clip0_60_2651">
<rect width="22.8621" height="22.8621" fill="white" transform="translate(14.0693 14.069)"/>
</clipPath>
</defs>
</svg>
