<svg width="51" height="51" viewBox="0 0 51 51" fill="none" xmlns="http://www.w3.org/2000/svg">
<circle cx="25.5" cy="25.5" r="25.5" fill="#F2F2F2"/>
<g clip-path="url(#clip0_60_2665)">
<g clip-path="url(#clip1_60_2665)">
<path d="M25.9616 37.0074L25.3226 36.4597C24.4417 35.7221 16.75 29.0792 16.75 24.2201C16.75 19.1327 20.8742 15.0085 25.9616 15.0085C31.049 15.0085 35.1732 19.1327 35.1732 24.2201C35.1732 29.0793 27.4815 35.7221 26.6042 36.4633L25.9616 37.0074ZM25.9616 17.0004C21.9761 17.0049 18.7464 20.2346 18.7419 24.2201C18.7419 27.2727 23.4741 32.1491 25.9616 34.3811C28.4491 32.1482 33.1813 27.269 33.1813 24.2201C33.1768 20.2346 29.9471 17.0049 25.9616 17.0004Z" fill="#DD5B46"/>
<path d="M25.9619 27.8715C23.9453 27.8715 22.3105 26.2367 22.3105 24.2201C22.3105 22.2035 23.9453 20.5687 25.9619 20.5687C27.9786 20.5687 29.6133 22.2035 29.6133 24.2201C29.6133 26.2367 27.9786 27.8715 25.9619 27.8715ZM25.9619 22.3944C24.9536 22.3944 24.1362 23.2118 24.1362 24.2201C24.1362 25.2284 24.9536 26.0458 25.9619 26.0458C26.9702 26.0458 27.7876 25.2284 27.7876 24.2201C27.7876 23.2118 26.9703 22.3944 25.9619 22.3944Z" fill="#DD5B46"/>
</g>
</g>
<defs>
<clipPath id="clip0_60_2665">
<rect width="22.8621" height="22.8621" fill="white" transform="translate(14.0693 14.069)"/>
</clipPath>
<clipPath id="clip1_60_2665">
<rect width="22" height="22" fill="white" transform="translate(15 15)"/>
</clipPath>
</defs>
</svg>
