<svg width="51" height="51" viewBox="0 0 51 51" fill="none" xmlns="http://www.w3.org/2000/svg">
<circle cx="25.5" cy="25.5" r="25.5" fill="#F2F2F2"/>
<g clip-path="url(#clip0_60_2657)">
<g clip-path="url(#clip1_60_2657)">
<path d="M35.3221 16.6684L34.3596 15.8342C33.2505 14.725 31.4538 14.725 30.3446 15.8342C30.3171 15.8617 28.6213 18.0709 28.6213 18.0709C27.5763 19.1709 27.5763 20.9034 28.6213 21.9942L29.6846 23.3325C28.3463 26.3667 26.2655 28.4567 23.3321 29.7034L21.9938 28.6309C20.903 27.5767 19.1613 27.5767 18.0705 28.6309C18.0705 28.6309 15.8613 30.3267 15.8338 30.3542C14.7246 31.4634 14.7246 33.26 15.788 34.3234L16.7046 35.3775C17.7588 36.4317 19.1796 37.0092 20.7196 37.0092C27.723 37.0092 36.9996 27.7234 36.9996 20.7292C36.9996 19.1984 36.4221 17.7684 35.3221 16.6775V16.6684ZM20.7196 35.1667C19.6746 35.1667 18.7121 34.7817 18.0521 34.1125L17.1355 33.0584C16.7596 32.6825 16.7413 32.0684 17.0988 31.6742C17.0988 31.6742 19.2896 29.9875 19.3171 29.96C19.693 29.5842 20.353 29.5842 20.738 29.96C20.7655 29.9875 22.608 31.4634 22.608 31.4634C22.8646 31.665 23.2038 31.72 23.5063 31.6009C27.3013 30.1525 30.0238 27.4392 31.5913 23.525C31.7105 23.2225 31.6646 22.8742 31.4538 22.6084C31.4538 22.6084 29.978 20.7567 29.9596 20.7384C29.5655 20.3442 29.5655 19.7117 29.9596 19.3175C29.9871 19.29 31.6738 17.0992 31.6738 17.0992C32.068 16.7417 32.6821 16.7509 33.1038 17.1725L34.0663 18.0067C34.7721 18.7125 35.1663 19.675 35.1663 20.72C35.1663 27.1 26.2105 35.1667 20.7196 35.1667Z" fill="#DD5B46"/>
</g>
</g>
<defs>
<clipPath id="clip0_60_2657">
<rect width="22.8621" height="22.8621" fill="white" transform="translate(14.0693 14.069)"/>
</clipPath>
<clipPath id="clip1_60_2657">
<rect width="22" height="22" fill="white" transform="translate(15 15)"/>
</clipPath>
</defs>
</svg>
