<svg width="19" height="19" viewBox="0 0 19 19" fill="none" xmlns="http://www.w3.org/2000/svg">
<path d="M14.8119 6.49955C14.7383 6.42535 14.6507 6.36646 14.5543 6.32627C14.4578 6.28607 14.3543 6.26538 14.2498 6.26538C14.1453 6.26538 14.0418 6.28607 13.9454 6.32627C13.8489 6.36646 13.7613 6.42535 13.6877 6.49955L10.0619 10.1254C9.9883 10.1996 9.90074 10.2585 9.80427 10.2987C9.7078 10.3389 9.60432 10.3596 9.49981 10.3596C9.3953 10.3596 9.29183 10.3389 9.19536 10.2987C9.09889 10.2585 9.01133 10.1996 8.93773 10.1254L5.3119 6.49955C5.2383 6.42535 5.15074 6.36646 5.05427 6.32627C4.9578 6.28607 4.85432 6.26538 4.74981 6.26538C4.6453 6.26538 4.54183 6.28607 4.44536 6.32627C4.34889 6.36646 4.26133 6.42535 4.18773 6.49955C4.04028 6.64788 3.95752 6.84853 3.95752 7.05768C3.95752 7.26683 4.04028 7.46748 4.18773 7.6158L7.82148 11.2496C8.26679 11.6943 8.87044 11.9441 9.49981 11.9441C10.1292 11.9441 10.7328 11.6943 11.1781 11.2496L14.8119 7.6158C14.9593 7.46748 15.0421 7.26683 15.0421 7.05768C15.0421 6.84853 14.9593 6.64788 14.8119 6.49955Z" fill="#0C0C0C"/>
</svg>
