<svg width="29" height="29" viewBox="0 0 29 29" fill="none" xmlns="http://www.w3.org/2000/svg">
<path d="M22.6082 9.92041C22.4959 9.80716 22.3623 9.71726 22.215 9.65592C22.0678 9.59457 21.9098 9.56299 21.7503 9.56299C21.5908 9.56299 21.4329 9.59457 21.2856 9.65592C21.1384 9.71726 21.0047 9.80716 20.8924 9.92041L15.3582 15.4546C15.2459 15.5678 15.1123 15.6577 14.965 15.7191C14.8178 15.7804 14.6598 15.812 14.5003 15.812C14.3408 15.812 14.1829 15.7804 14.0356 15.7191C13.8884 15.6577 13.7547 15.5678 13.6424 15.4546L8.10822 9.92041C7.99589 9.80716 7.86225 9.71726 7.715 9.65592C7.56776 9.59457 7.40982 9.56299 7.25031 9.56299C7.09079 9.56299 6.93286 9.59457 6.78561 9.65592C6.63836 9.71726 6.50472 9.80716 6.39239 9.92041C6.16734 10.1468 6.04102 10.4531 6.04102 10.7723C6.04102 11.0915 6.16734 11.3978 6.39239 11.6242L11.9386 17.1704C12.6183 17.8493 13.5397 18.2306 14.5003 18.2306C15.4609 18.2306 16.3823 17.8493 17.062 17.1704L22.6082 11.6242C22.8333 11.3978 22.9596 11.0915 22.9596 10.7723C22.9596 10.4531 22.8333 10.1468 22.6082 9.92041Z" fill="black"/>
</svg>
