<svg width="26" height="26" viewBox="0 0 26 26" fill="none" xmlns="http://www.w3.org/2000/svg">
<rect x="0.5" y="0.5" width="25" height="25" rx="4.5" fill="white" stroke="#C7C6C6"/>
<path d="M15.5002 17.8121C15.5744 17.7385 15.6333 17.6509 15.6735 17.5545C15.7137 17.458 15.7344 17.3545 15.7344 17.25C15.7344 17.1455 15.7137 17.042 15.6735 16.9455C15.6333 16.8491 15.5744 16.7615 15.5002 16.6879L11.8744 13.0621C11.8002 12.9885 11.7413 12.9009 11.7011 12.8045C11.6609 12.708 11.6402 12.6045 11.6402 12.5C11.6402 12.3955 11.6609 12.292 11.7011 12.1955C11.7413 12.0991 11.8002 12.0115 11.8744 11.9379L15.5002 8.31208C15.5744 8.23848 15.6333 8.15093 15.6735 8.05445C15.7137 7.95798 15.7344 7.85451 15.7344 7.75C15.7344 7.64549 15.7137 7.54201 15.6735 7.44554C15.6333 7.34907 15.5744 7.26151 15.5002 7.18791C15.3519 7.04046 15.1512 6.9577 14.9421 6.9577C14.7329 6.9577 14.5323 7.04046 14.384 7.18791L10.7502 10.8217C10.3054 11.267 10.0556 11.8706 10.0556 12.5C10.0556 13.1294 10.3054 13.733 10.7502 14.1783L14.384 17.8121C14.5323 17.9595 14.7329 18.0423 14.9421 18.0423C15.1512 18.0423 15.3519 17.9595 15.5002 17.8121Z" fill="#0C0C0C"/>
</svg>
