<svg width="18" height="20" viewBox="0 0 18 20" fill="none" xmlns="http://www.w3.org/2000/svg">
<path d="M8.965 20.0066L8.3841 19.5087C7.58328 18.8382 0.59082 12.7992 0.59082 8.38187C0.59082 3.75695 4.34008 0.00769043 8.965 0.00769043C13.5899 0.00769043 17.3392 3.75695 17.3392 8.38187C17.3392 12.7993 10.3467 18.8382 9.54922 19.512L8.965 20.0066ZM8.965 1.81843C5.34184 1.82253 2.4057 4.75867 2.4016 8.38183C2.4016 11.1569 6.70363 15.59 8.965 17.6191C11.2264 15.5892 15.5284 11.1536 15.5284 8.38183C15.5243 4.75867 12.5882 1.82257 8.965 1.81843Z" fill="#0C0C0C"/>
<path d="M8.96501 11.7013C7.13173 11.7013 5.64555 10.2151 5.64555 8.38183C5.64555 6.54855 7.13173 5.06238 8.96501 5.06238C10.7983 5.06238 12.2845 6.54855 12.2845 8.38183C12.2845 10.2151 10.7983 11.7013 8.96501 11.7013ZM8.96501 6.72207C8.04837 6.72207 7.30528 7.46515 7.30528 8.38179C7.30528 9.29843 8.04837 10.0415 8.96501 10.0415C9.88165 10.0415 10.6247 9.29843 10.6247 8.38179C10.6247 7.46515 9.88169 6.72207 8.96501 6.72207Z" fill="#0C0C0C"/>
</svg>
