<svg width="46" height="46" viewBox="0 0 46 46" fill="none" xmlns="http://www.w3.org/2000/svg">
<circle cx="23" cy="23" r="23" fill="#DD5B46"/>
<g clip-path="url(#clip0_168_2)">
<path d="M19 15H15C13.9391 15 12.9217 15.4214 12.1716 16.1716C11.4214 16.9217 11 17.9391 11 19V23C11 23.5304 11.2107 24.0391 11.5858 24.4142C11.9609 24.7893 12.4696 25 13 25H18.91C18.6727 26.3965 17.9495 27.6643 16.868 28.5792C15.7866 29.4941 14.4166 29.9974 13 30C12.7348 30 12.4804 30.1054 12.2929 30.2929C12.1054 30.4804 12 30.7348 12 31C12 31.2652 12.1054 31.5196 12.2929 31.7071C12.4804 31.8946 12.7348 32 13 32C15.121 31.9976 17.1544 31.154 18.6542 29.6542C20.154 28.1544 20.9976 26.121 21 24V17C21 16.4696 20.7893 15.9609 20.4142 15.5858C20.0391 15.2107 19.5304 15 19 15Z" fill="white"/>
<path d="M33 15H29C27.9391 15 26.9217 15.4214 26.1716 16.1716C25.4214 16.9217 25 17.9391 25 19V23C25 23.5304 25.2107 24.0391 25.5858 24.4142C25.9609 24.7893 26.4696 25 27 25H32.91C32.6727 26.3965 31.9495 27.6643 30.868 28.5792C29.7866 29.4941 28.4166 29.9974 27 30C26.7348 30 26.4804 30.1054 26.2929 30.2929C26.1054 30.4804 26 30.7348 26 31C26 31.2652 26.1054 31.5196 26.2929 31.7071C26.4804 31.8946 26.7348 32 27 32C29.121 31.9976 31.1544 31.154 32.6542 29.6542C34.154 28.1544 34.9976 26.121 35 24V17C35 16.4696 34.7893 15.9609 34.4142 15.5858C34.0391 15.2107 33.5304 15 33 15Z" fill="white"/>
</g>
<defs>
<clipPath id="clip0_168_2">
<rect width="24" height="24" fill="white" transform="translate(11 11)"/>
</clipPath>
</defs>
</svg>
