<svg width="26" height="26" viewBox="0 0 26 26" fill="none" xmlns="http://www.w3.org/2000/svg">
<rect x="-0.5" y="0.5" width="25" height="25" rx="4.5" transform="matrix(-1 0 0 1 25 0)" fill="white" stroke="#C7C6C6"/>
<path d="M10.4998 17.8121C10.4256 17.7385 10.3667 17.6509 10.3265 17.5545C10.2863 17.458 10.2656 17.3545 10.2656 17.25C10.2656 17.1455 10.2863 17.042 10.3265 16.9455C10.3667 16.8491 10.4256 16.7615 10.4998 16.6879L14.1256 13.0621C14.1998 12.9885 14.2587 12.9009 14.2989 12.8045C14.3391 12.708 14.3598 12.6045 14.3598 12.5C14.3598 12.3955 14.3391 12.292 14.2989 12.1955C14.2587 12.0991 14.1998 12.0115 14.1256 11.9379L10.4998 8.31208C10.4256 8.23848 10.3667 8.15093 10.3265 8.05445C10.2863 7.95798 10.2656 7.85451 10.2656 7.75C10.2656 7.64549 10.2863 7.54201 10.3265 7.44554C10.3667 7.34907 10.4256 7.26151 10.4998 7.18791C10.6481 7.04046 10.8488 6.9577 11.0579 6.9577C11.2671 6.9577 11.4677 7.04046 11.616 7.18791L15.2498 10.8217C15.6946 11.267 15.9444 11.8706 15.9444 12.5C15.9444 13.1294 15.6946 13.733 15.2498 14.1783L11.616 17.8121C11.4677 17.9595 11.2671 18.0423 11.0579 18.0423C10.8488 18.0423 10.6481 17.9595 10.4998 17.8121Z" fill="#0C0C0C"/>
</svg>
