<svg width="35" height="35" viewBox="0 0 35 35" fill="none" xmlns="http://www.w3.org/2000/svg">
<g clip-path="url(#clip0_1_93)">
<path d="M17.5 0C7.85021 0 0 7.85021 0 17.5C0 27.1498 7.85021 35 17.5 35C27.1498 35 35 27.1498 35 17.5C35 7.85021 27.1498 0 17.5 0ZM17.5 32.0833C9.45875 32.0833 2.91667 25.5413 2.91667 17.5C2.91667 9.45875 9.45875 2.91667 17.5 2.91667C25.5413 2.91667 32.0833 9.45875 32.0833 17.5C32.0833 25.5413 25.5413 32.0833 17.5 32.0833ZM23.3333 20.4167C23.3333 22.8288 21.3704 24.7917 18.9583 24.7917V26.25C18.9583 27.0565 18.3065 27.7083 17.5 27.7083C16.6935 27.7083 16.0417 27.0565 16.0417 26.25V24.7917H15.6508C14.0948 24.7917 12.6423 23.9546 11.8621 22.6056C11.4581 21.9071 11.6973 21.016 12.3929 20.6135C13.0915 20.2067 13.984 20.4487 14.385 21.1444C14.646 21.5965 15.1302 21.875 15.6494 21.875H18.9569C19.7619 21.875 20.4152 21.2217 20.4152 20.4167C20.4152 19.8654 20.02 19.3988 19.476 19.3083L15.0413 18.569C13.0842 18.2437 11.6652 16.5667 11.6652 14.5833C11.6652 12.1713 13.6281 10.2083 16.0402 10.2083V8.75C16.0402 7.945 16.6921 7.29167 17.4985 7.29167C18.305 7.29167 18.9569 7.945 18.9569 8.75V10.2083H19.3477C20.9038 10.2083 22.3563 11.0469 23.1365 12.3958C23.5404 13.0929 23.3013 13.984 22.6056 14.3879C21.9056 14.7919 21.0146 14.5527 20.6135 13.8556C20.3525 13.405 19.8683 13.1265 19.3492 13.1265H16.0417C15.2367 13.1265 14.5833 13.7813 14.5833 14.5848C14.5833 15.136 14.9785 15.6027 15.5225 15.6931L19.9573 16.4325C21.9144 16.7577 23.3333 18.4348 23.3333 20.4181V20.4167Z" fill="#DD5B46"/>
</g>
<defs>
<clipPath id="clip0_1_93">
<rect width="35" height="35" fill="white"/>
</clipPath>
</defs>
</svg>
