<svg width="35" height="33" viewBox="0 0 35 33" fill="none" xmlns="http://www.w3.org/2000/svg">
<g clip-path="url(#clip0_1_60)">
<path d="M27.7083 1.37506H7.29167C5.35851 1.37724 3.50519 2.10227 2.13824 3.39111C0.771286 4.67995 0.00231563 6.42737 0 8.25006L0 24.7501C0.00231563 26.5728 0.771286 28.3202 2.13824 29.609C3.50519 30.8979 5.35851 31.6229 7.29167 31.6251H27.7083C29.6415 31.6229 31.4948 30.8979 32.8618 29.609C34.2287 28.3202 34.9977 26.5728 35 24.7501V8.25006C34.9977 6.42737 34.2287 4.67995 32.8618 3.39111C31.4948 2.10227 29.6415 1.37724 27.7083 1.37506ZM7.29167 4.12506H27.7083C28.5816 4.12668 29.4343 4.37464 30.1568 4.83704C30.8793 5.29944 31.4385 5.95511 31.7625 6.71969L20.5946 17.2508C19.7727 18.0226 18.66 18.456 17.5 18.456C16.34 18.456 15.2273 18.0226 14.4054 17.2508L3.2375 6.71969C3.56147 5.95511 4.12069 5.29944 4.84319 4.83704C5.5657 4.37464 6.41844 4.12668 7.29167 4.12506ZM27.7083 28.8751H7.29167C6.13134 28.8751 5.01855 28.4405 4.19807 27.6669C3.3776 26.8933 2.91667 25.8441 2.91667 24.7501V10.3126L12.3433 19.1951C13.7122 20.4824 15.5666 21.2054 17.5 21.2054C19.4334 21.2054 21.2878 20.4824 22.6567 19.1951L32.0833 10.3126V24.7501C32.0833 25.8441 31.6224 26.8933 30.8019 27.6669C29.9815 28.4405 28.8687 28.8751 27.7083 28.8751Z" fill="#DD5B46"/>
</g>
<defs>
<clipPath id="clip0_1_60">
<rect width="35" height="33" fill="white"/>
</clipPath>
</defs>
</svg>
