<svg width="35" height="35" viewBox="0 0 35 35" fill="none" xmlns="http://www.w3.org/2000/svg">
<g clip-path="url(#clip0_1_43)">
<g clip-path="url(#clip1_1_43)">
<path d="M32.8927 19.9237L30.1219 9.95458C29.3098 7.03402 27.5447 4.46875 25.1072 2.66651C22.6697 0.864281 19.6998 -0.071482 16.6695 0.00796815C13.6391 0.0874183 10.7223 1.17752 8.38263 3.105C6.04296 5.03249 4.41471 7.68673 3.7567 10.6458L1.61149 20.2927C1.37454 21.3587 1.38001 22.4642 1.62752 23.5278C1.87503 24.5913 2.35825 25.5857 3.04151 26.4375C3.72476 27.2893 4.59061 27.9767 5.57511 28.4491C6.55962 28.9215 7.63765 29.1667 8.72962 29.1667H10.3542C10.6889 30.815 11.5832 32.2969 12.8855 33.3614C14.1878 34.4258 15.8181 35.0073 17.5 35.0073C19.182 35.0073 20.8123 34.4258 22.1146 33.3614C23.4169 32.2969 24.3112 30.815 24.6459 29.1667H25.868C26.9921 29.1667 28.1009 28.9069 29.108 28.4075C30.1151 27.9081 30.993 27.1826 31.6733 26.2877C32.3536 25.3928 32.8178 24.3528 33.0295 23.2488C33.2413 22.1448 33.1936 21.0068 32.8927 19.9237ZM17.5 32.0833C16.5984 32.0796 15.72 31.7974 14.9848 31.2753C14.2497 30.7532 13.6939 30.0167 13.3934 29.1667H21.6067C21.3062 30.0167 20.7503 30.7532 20.0152 31.2753C19.2801 31.7974 18.4017 32.0796 17.5 32.0833ZM29.3505 24.5219C28.9441 25.061 28.4176 25.4979 27.8128 25.7979C27.208 26.0978 26.5416 26.2527 25.8665 26.25H8.72962C8.07451 26.2499 7.42779 26.1027 6.8372 25.8192C6.2466 25.5357 5.72721 25.1232 5.31735 24.6121C4.9075 24.1011 4.61764 23.5045 4.46919 22.8664C4.32073 22.2284 4.31746 21.5651 4.45962 20.9256L6.60337 11.2773C7.12013 8.95301 8.39902 6.86817 10.2367 5.35419C12.0745 3.84022 14.3655 2.984 16.7457 2.92164C19.126 2.85929 21.4587 3.59438 23.3732 5.01005C25.2877 6.42573 26.674 8.44075 27.3117 10.7348L30.0825 20.704C30.2656 21.3535 30.2948 22.0367 30.1677 22.6994C30.0406 23.3622 29.7608 23.9862 29.3505 24.5219Z" fill="#DD5B46"/>
</g>
</g>
<defs>
<clipPath id="clip0_1_43">
<rect width="35" height="35" fill="white"/>
</clipPath>
<clipPath id="clip1_1_43">
<rect width="35" height="35" fill="white"/>
</clipPath>
</defs>
</svg>
