<svg width="35" height="35" viewBox="0 0 35 35" fill="none" xmlns="http://www.w3.org/2000/svg">
<g clip-path="url(#clip0_1_80)">
<g clip-path="url(#clip1_1_80)">
<path d="M16.5 23.3333C15.3463 23.3333 14.2185 22.9912 13.2592 22.3502C12.2999 21.7093 11.5522 20.7982 11.1107 19.7323C10.6692 18.6664 10.5537 17.4935 10.7788 16.362C11.0038 15.2304 11.5594 14.191 12.3752 13.3752C13.191 12.5594 14.2304 12.0038 15.362 11.7788C16.4935 11.5537 17.6664 11.6692 18.7323 12.1107C19.7982 12.5522 20.7093 13.2999 21.3502 14.2592C21.9912 15.2185 22.3333 16.3463 22.3333 17.5C22.3333 19.0471 21.7188 20.5308 20.6248 21.6248C19.5308 22.7188 18.0471 23.3333 16.5 23.3333ZM16.5 14.5833C15.9231 14.5833 15.3592 14.7544 14.8796 15.0749C14.3999 15.3954 14.0261 15.8509 13.8054 16.3838C13.5846 16.9168 13.5268 17.5032 13.6394 18.069C13.7519 18.6348 14.0297 19.1545 14.4376 19.5624C14.8455 19.9703 15.3652 20.2481 15.931 20.3606C16.4968 20.4732 17.0832 20.4154 17.6162 20.1947C18.1491 19.9739 18.6046 19.6001 18.9251 19.1204C19.2456 18.6408 19.4167 18.0769 19.4167 17.5C19.4167 16.7265 19.1094 15.9846 18.5624 15.4376C18.0154 14.8906 17.2735 14.5833 16.5 14.5833ZM25.25 33.5417C25.25 31.221 24.3281 28.9954 22.6872 27.3545C21.0462 25.7135 18.8206 24.7917 16.5 24.7917C14.1794 24.7917 11.9538 25.7135 10.3128 27.3545C8.67187 28.9954 7.75 31.221 7.75 33.5417C7.75 33.9284 7.90365 34.2994 8.17714 34.5729C8.45063 34.8464 8.82156 35 9.20833 35C9.59511 35 9.96604 34.8464 10.2395 34.5729C10.513 34.2994 10.6667 33.9284 10.6667 33.5417C10.6667 31.9946 11.2812 30.5108 12.3752 29.4169C13.4692 28.3229 14.9529 27.7083 16.5 27.7083C18.0471 27.7083 19.5308 28.3229 20.6248 29.4169C21.7188 30.5108 22.3333 31.9946 22.3333 33.5417C22.3333 33.9284 22.487 34.2994 22.7605 34.5729C23.034 34.8464 23.4049 35 23.7917 35C24.1784 35 24.5494 34.8464 24.8229 34.5729C25.0964 34.2994 25.25 33.9284 25.25 33.5417ZM25.25 11.6667C24.0963 11.6667 22.9685 11.3246 22.0092 10.6836C21.0499 10.0426 20.3022 9.13156 19.8607 8.06566C19.4192 6.99975 19.3037 5.82687 19.5288 4.69531C19.7538 3.56375 20.3094 2.52435 21.1252 1.70855C21.941 0.89274 22.9804 0.337169 24.112 0.112088C25.2435 -0.112992 26.4164 0.00252751 27.4823 0.444039C28.5482 0.88555 29.4593 1.63322 30.1002 2.59251C30.7412 3.5518 31.0833 4.67961 31.0833 5.83334C31.0833 7.38043 30.4688 8.86416 29.3748 9.95813C28.2808 11.0521 26.7971 11.6667 25.25 11.6667ZM25.25 2.91667C24.6731 2.91667 24.1092 3.08773 23.6296 3.40822C23.1499 3.7287 22.7761 4.18423 22.5554 4.71718C22.3346 5.25013 22.2768 5.83657 22.3894 6.40235C22.5019 6.96813 22.7797 7.48783 23.1876 7.89573C23.5955 8.30363 24.1152 8.58142 24.681 8.69396C25.2468 8.8065 25.8332 8.74874 26.3662 8.52799C26.8991 8.30723 27.3546 7.93339 27.6751 7.45375C27.9956 6.97411 28.1667 6.4102 28.1667 5.83334C28.1667 5.05979 27.8594 4.31792 27.3124 3.77094C26.7654 3.22396 26.0235 2.91667 25.25 2.91667ZM34 21.875C33.9977 19.5551 33.0751 17.3308 31.4346 15.6904C29.7942 14.0499 27.5699 13.1273 25.25 13.125C24.8632 13.125 24.4923 13.2786 24.2188 13.5521C23.9453 13.8256 23.7917 14.1966 23.7917 14.5833C23.7917 14.9701 23.9453 15.341 24.2188 15.6145C24.4923 15.888 24.8632 16.0417 25.25 16.0417C26.7971 16.0417 28.2808 16.6563 29.3748 17.7502C30.4688 18.8442 31.0833 20.3279 31.0833 21.875C31.0833 22.2618 31.237 22.6327 31.5105 22.9062C31.784 23.1797 32.1549 23.3333 32.5417 23.3333C32.9284 23.3333 33.2994 23.1797 33.5729 22.9062C33.8464 22.6327 34 22.2618 34 21.875ZM7.75 11.6667C6.59628 11.6667 5.46846 11.3246 4.50917 10.6836C3.54989 10.0426 2.80221 9.13156 2.3607 8.06566C1.91919 6.99975 1.80367 5.82687 2.02875 4.69531C2.25383 3.56375 2.8094 2.52435 3.62521 1.70855C4.44102 0.89274 5.48042 0.337169 6.61197 0.112088C7.74353 -0.112992 8.91642 0.00252751 9.98232 0.444039C11.0482 0.88555 11.9593 1.63322 12.6002 2.59251C13.2412 3.5518 13.5833 4.67961 13.5833 5.83334C13.5833 7.38043 12.9688 8.86416 11.8748 9.95813C10.7808 11.0521 9.2971 11.6667 7.75 11.6667ZM7.75 2.91667C7.17314 2.91667 6.60923 3.08773 6.12959 3.40822C5.64994 3.7287 5.27611 4.18423 5.05535 4.71718C4.8346 5.25013 4.77684 5.83657 4.88938 6.40235C5.00192 6.96813 5.2797 7.48783 5.68761 7.89573C6.09551 8.30363 6.61521 8.58142 7.18099 8.69396C7.74676 8.8065 8.33321 8.74874 8.86616 8.52799C9.39911 8.30723 9.85463 7.93339 10.1751 7.45375C10.4956 6.97411 10.6667 6.4102 10.6667 5.83334C10.6667 5.05979 10.3594 4.31792 9.8124 3.77094C9.26541 3.22396 8.52355 2.91667 7.75 2.91667ZM1.91667 21.875C1.91667 20.3279 2.53125 18.8442 3.62521 17.7502C4.71917 16.6563 6.2029 16.0417 7.75 16.0417C8.13677 16.0417 8.50771 15.888 8.7812 15.6145C9.05469 15.341 9.20833 14.9701 9.20833 14.5833C9.20833 14.1966 9.05469 13.8256 8.7812 13.5521C8.50771 13.2786 8.13677 13.125 7.75 13.125C5.43007 13.1273 3.20582 14.0499 1.56537 15.6904C-0.0750673 17.3308 -0.997684 19.5551 -1 21.875C-1 22.2618 -0.846355 22.6327 -0.572864 22.9062C-0.299374 23.1797 0.0715593 23.3333 0.458333 23.3333C0.845107 23.3333 1.21604 23.1797 1.48953 22.9062C1.76302 22.6327 1.91667 22.2618 1.91667 21.875Z" fill="#DD5B46"/>
</g>
</g>
<defs>
<clipPath id="clip0_1_80">
<rect width="35" height="35" fill="white"/>
</clipPath>
<clipPath id="clip1_1_80">
<rect width="35" height="35" fill="white" transform="translate(-1)"/>
</clipPath>
</defs>
</svg>
