<svg width="35" height="35" viewBox="0 0 35 35" fill="none" xmlns="http://www.w3.org/2000/svg">
<g clip-path="url(#clip0_1_71)">
<path d="M16.5 0C13.2366 0 10.0465 0.967708 7.3331 2.78075C4.61969 4.59379 2.50484 7.17074 1.256 10.1857C0.00714922 13.2007 -0.319606 16.5183 0.31705 19.719C0.953706 22.9197 2.52518 25.8597 4.83275 28.1673C7.14031 30.4748 10.0803 32.0463 13.281 32.683C16.4817 33.3196 19.7993 32.9929 22.8143 31.744C25.8293 30.4952 28.4062 28.3803 30.2193 25.6669C32.0323 22.9535 33 19.7634 33 16.5C32.9953 12.1254 31.2554 7.93129 28.162 4.83796C25.0687 1.74464 20.8746 0.00473149 16.5 0ZM16.5 30.25C13.7805 30.25 11.1221 29.4436 8.86092 27.9327C6.59974 26.4218 4.83737 24.2744 3.79666 21.7619C2.75596 19.2494 2.48366 16.4847 3.01421 13.8175C3.54476 11.1503 4.85432 8.70025 6.77729 6.77728C8.70026 4.85431 11.1503 3.54475 13.8175 3.0142C16.4848 2.48366 19.2494 2.75595 21.7619 3.79666C24.2744 4.83736 26.4218 6.59973 27.9327 8.86091C29.4436 11.1221 30.25 13.7805 30.25 16.5C30.246 20.1455 28.7961 23.6405 26.2183 26.2183C23.6405 28.7961 20.1455 30.246 16.5 30.25Z" fill="#DD5B46"/>
<path d="M16.5 8.25C16.1353 8.25 15.7856 8.39487 15.5277 8.65273C15.2699 8.91059 15.125 9.26033 15.125 9.625V15.5719L10.4899 18.4759C10.1799 18.6695 9.95954 18.9784 9.87728 19.3345C9.79502 19.6906 9.8576 20.0648 10.0512 20.3748C10.2449 20.6847 10.5537 20.9051 10.9098 20.9873C11.2659 21.0696 11.6401 21.007 11.9501 20.8134L17.2301 17.5134C17.4296 17.3884 17.5937 17.2143 17.7066 17.0077C17.8195 16.8011 17.8775 16.569 17.875 16.3336V9.625C17.875 9.26033 17.7301 8.91059 17.4723 8.65273C17.2144 8.39487 16.8647 8.25 16.5 8.25Z" fill="#DD5B46"/>
</g>
<defs>
<clipPath id="clip0_1_71">
<rect width="33" height="33" fill="white"/>
</clipPath>
</defs>
</svg>
