<svg width="35" height="35" viewBox="0 0 35 35" fill="none" xmlns="http://www.w3.org/2000/svg">
<g clip-path="url(#clip0_1_50)">
<g clip-path="url(#clip1_1_50)">
<g clip-path="url(#clip2_1_50)">
<path d="M33.4002 10.1694C32.4144 9.67648 31.2521 9.78002 30.3713 10.4436C30.3144 10.4859 30.2604 10.534 30.2108 10.5836L27.6485 13.1692C27.3408 9.42856 24.2346 6.4696 20.4167 6.4696H7.29167C3.27104 6.46815 0 9.73919 0 13.7598V22.5098C0 26.5304 3.27104 29.8015 7.29167 29.8015H20.4167C24.2506 29.8015 27.37 26.8163 27.6529 23.0538L30.2138 25.6117C30.2633 25.6598 30.3144 25.7036 30.3698 25.7459C30.8831 26.1309 31.4898 26.3263 32.1023 26.3263C32.5442 26.3263 32.986 26.2256 33.4002 26.0186C34.3875 25.5256 35 24.5325 35 23.4315V12.7594C35 11.6554 34.3875 10.6623 33.4002 10.1694ZM20.4167 26.8848H7.29167C4.87958 26.8848 2.91667 24.9219 2.91667 22.5098V13.7598C2.91667 11.3477 4.87958 9.38481 7.29167 9.38481H20.4167C22.8288 9.38481 24.7917 11.3477 24.7917 13.7598V22.5098C24.7917 24.9219 22.8288 26.8848 20.4167 26.8848ZM27.7083 18.985V17.2511L32.0833 12.8352L32.1198 23.3906L27.7083 18.9836V18.985Z" fill="#DD5B46"/>
</g>
</g>
</g>
<defs>
<clipPath id="clip0_1_50">
<rect width="35" height="35" fill="white"/>
</clipPath>
<clipPath id="clip1_1_50">
<rect width="35" height="35" fill="white"/>
</clipPath>
<clipPath id="clip2_1_50">
<rect width="35" height="35" fill="white" transform="translate(0 0.634766)"/>
</clipPath>
</defs>
</svg>
