<svg width="59" height="59" viewBox="0 0 59 59" fill="none" xmlns="http://www.w3.org/2000/svg">
<rect width="59" height="59" rx="5" fill="#2B345C"/>
<g clip-path="url(#clip0_1_152)">
<path d="M35.447 24.432L37.553 26.5695L28.8635 35.13C28.283 35.7105 27.5195 36 26.753 36C25.9865 36 25.2155 35.7075 24.629 35.1225L20.456 31.0785L22.5455 28.923L26.735 32.9835L35.447 24.432ZM47 30C47 39.9255 38.9255 48 29 48C19.0745 48 11 39.9255 11 30C11 20.0745 19.0745 12 29 12C38.9255 12 47 20.0745 47 30ZM44 30C44 21.729 37.271 15 29 15C20.729 15 14 21.729 14 30C14 38.271 20.729 45 29 45C37.271 45 44 38.271 44 30Z" fill="white"/>
</g>
<defs>
<clipPath id="clip0_1_152">
<rect width="36" height="36" fill="white" transform="translate(11 12)"/>
</clipPath>
</defs>
</svg>
