<svg width="59" height="59" viewBox="0 0 59 59" fill="none" xmlns="http://www.w3.org/2000/svg">
<rect width="59" height="59" rx="5" fill="#2B345C"/>
<path d="M28.5 12C18.8502 12 11 19.8502 11 29.5C11 39.1498 18.8502 47 28.5 47C38.1498 47 46 39.1498 46 29.5C46 19.8502 38.1498 12 28.5 12ZM28.5 44.0833C20.4588 44.0833 13.9167 37.5413 13.9167 29.5C13.9167 21.4588 20.4588 14.9167 28.5 14.9167C36.5413 14.9167 43.0833 21.4588 43.0833 29.5C43.0833 37.5413 36.5413 44.0833 28.5 44.0833ZM34.3333 32.4167C34.3333 34.8288 32.3704 36.7917 29.9583 36.7917V38.25C29.9583 39.0565 29.3065 39.7083 28.5 39.7083C27.6935 39.7083 27.0417 39.0565 27.0417 38.25V36.7917H26.6508C25.0948 36.7917 23.6423 35.9546 22.8621 34.6056C22.4581 33.9071 22.6973 33.016 23.3929 32.6135C24.0915 32.2067 24.984 32.4487 25.385 33.1444C25.646 33.5965 26.1302 33.875 26.6494 33.875H29.9569C30.7619 33.875 31.4152 33.2217 31.4152 32.4167C31.4152 31.8654 31.02 31.3988 30.476 31.3083L26.0413 30.569C24.0842 30.2437 22.6652 28.5667 22.6652 26.5833C22.6652 24.1713 24.6281 22.2083 27.0402 22.2083V20.75C27.0402 19.945 27.6921 19.2917 28.4985 19.2917C29.305 19.2917 29.9569 19.945 29.9569 20.75V22.2083H30.3477C31.9038 22.2083 33.3563 23.0469 34.1365 24.3958C34.5404 25.0929 34.3013 25.984 33.6056 26.3879C32.9056 26.7919 32.0146 26.5527 31.6135 25.8556C31.3525 25.405 30.8683 25.1265 30.3492 25.1265H27.0417C26.2367 25.1265 25.5833 25.7813 25.5833 26.5848C25.5833 27.136 25.9785 27.6027 26.5225 27.6931L30.9573 28.4325C32.9144 28.7577 34.3333 30.4348 34.3333 32.4181V32.4167Z" fill="white"/>
</svg>
