<svg width="48" height="48" viewBox="0 0 48 48" fill="none" xmlns="http://www.w3.org/2000/svg">
<circle cx="24" cy="24" r="24" fill="white"/>
<g clip-path="url(#clip0_56_342)">
<path d="M19.0011 24.5C19.0011 22.0148 21.0153 19.9996 23.5005 19.9996C25.9858 19.9996 28.0011 22.0148 28.0011 24.5C28.0011 26.9852 25.9858 29.0004 23.5005 29.0004C21.0153 29.0004 19.0011 26.9852 19.0011 24.5ZM16.5682 24.5C16.5682 28.3286 19.6718 31.4321 23.5005 31.4321C27.3293 31.4321 30.4329 28.3286 30.4329 24.5C30.4329 20.6714 27.3293 17.5679 23.5005 17.5679C19.6718 17.5679 16.5682 20.6714 16.5682 24.5ZM29.0873 17.2931C29.0869 18.1878 29.812 18.9133 30.7067 18.9137C31.6014 18.9141 32.3271 18.189 32.3274 17.2943C32.3278 16.3996 31.6027 15.6741 30.708 15.6737C29.8137 15.6741 29.0881 16.3988 29.0873 17.2931ZM18.0463 35.4887C16.7301 35.4287 16.0147 35.2095 15.5392 35.0243C14.9089 34.7789 14.4592 34.4867 13.9863 34.0145C13.5135 33.5423 13.2208 33.093 12.9765 32.4627C12.7912 31.9875 12.5719 31.2719 12.5121 29.9557C12.4466 28.5327 12.4336 28.1053 12.4336 24.5001C12.4336 20.895 12.4477 20.4687 12.5121 19.0445C12.572 17.7283 12.7929 17.0141 12.9765 16.5375C13.2219 15.9072 13.5141 15.4575 13.9863 14.9847C14.4585 14.5118 14.9078 14.2192 15.5392 13.9749C16.0144 13.7895 16.7301 13.5703 18.0463 13.5105C19.4694 13.445 19.8969 13.4319 23.5005 13.4319C27.1042 13.4319 27.5321 13.4461 28.9564 13.5105C30.2726 13.5704 30.9869 13.7913 31.4635 13.9749C32.0938 14.2192 32.5435 14.5125 33.0164 14.9847C33.4892 15.4568 33.7808 15.9072 34.0262 16.5375C34.2115 17.0127 34.4308 17.7283 34.4906 19.0445C34.5561 20.4687 34.5691 20.895 34.5691 24.5001C34.5691 28.1053 34.5561 28.5315 34.4906 29.9557C34.4307 31.2719 34.2104 31.9873 34.0262 32.4627C33.7808 33.093 33.4886 33.5427 33.0164 34.0145C32.5442 34.4862 32.0938 34.7789 31.4635 35.0243C30.9883 35.2096 30.2726 35.4288 28.9564 35.4887C27.5333 35.5541 27.1058 35.5672 23.5005 35.5672C19.8952 35.5672 19.469 35.5541 18.0463 35.4887ZM17.9345 11.0818C16.4973 11.1472 15.5152 11.3751 14.6576 11.7088C13.7694 12.0534 13.0174 12.5158 12.266 13.2659C11.5147 14.0161 11.0535 14.7692 10.7088 15.6574C10.3751 16.5156 10.1472 17.4971 10.0818 18.9342C10.0152 20.3736 10 20.8338 10 24.5C10 28.1662 10.0152 28.6264 10.0818 30.0658C10.1472 31.503 10.3751 32.4844 10.7088 33.3426C11.0535 34.2303 11.5148 34.9842 12.266 35.7341C13.0173 36.4839 13.7694 36.9456 14.6576 37.2912C15.5169 37.6249 16.4973 37.8528 17.9345 37.9182C19.3748 37.9837 19.8342 38 23.5005 38C27.1669 38 27.6271 37.9848 29.0665 37.9182C30.5039 37.8528 31.4853 37.6249 32.3435 37.2912C33.2312 36.9456 33.9837 36.4842 34.735 35.7341C35.4864 34.9839 35.9466 34.2303 36.2922 33.3426C36.626 32.4844 36.8549 31.5029 36.9193 30.0658C36.9848 28.6253 37 28.1662 37 24.5C37 20.8338 36.9848 20.3736 36.9193 18.9342C36.8539 17.497 36.626 16.515 36.2922 15.6574C35.9466 14.7697 35.4852 14.0173 34.735 13.2659C33.9848 12.5146 33.2312 12.0534 32.3446 11.7088C31.4853 11.3751 30.5038 11.1461 29.0676 11.0818C27.6281 11.0163 27.1679 11 23.5016 11C19.8353 11 19.3748 11.0152 17.9345 11.0818Z" fill="url(#paint0_radial_56_342)"/>
</g>
<defs>
<radialGradient id="paint0_radial_56_342" cx="0" cy="0" r="1" gradientUnits="userSpaceOnUse" gradientTransform="translate(67.3961 445.041) scale(563.962)">
<stop offset="0.09" stop-color="#FA8F21"/>
<stop offset="0.78" stop-color="#D82D7E"/>
</radialGradient>
<clipPath id="clip0_56_342">
<rect width="27" height="27" fill="white" transform="translate(10 11)"/>
</clipPath>
</defs>
</svg>
