<svg width="48" height="48" viewBox="0 0 48 48" fill="none" xmlns="http://www.w3.org/2000/svg">
<circle cx="24" cy="24" r="24" fill="white"/>
<path fill-rule="evenodd" clip-rule="evenodd" d="M35.6277 36.5834H30.6109V28.7336C30.6109 26.8615 30.5792 24.4535 28.0042 24.4535C25.3943 24.4535 24.9958 26.4937 24.9958 28.5993V36.5834H19.9842V20.4409H24.7939V22.648H24.8626C25.5317 21.3785 27.168 20.0403 29.6088 20.0403C34.6891 20.0403 35.6277 23.3827 35.6277 27.7304V36.5834ZM14.3278 18.2358C12.7158 18.2358 11.4167 16.9325 11.4167 15.3257C11.4167 13.7201 12.7158 12.4167 14.3278 12.4167C15.9325 12.4167 17.2358 13.7201 17.2358 15.3257C17.2358 16.9325 15.9325 18.2358 14.3278 18.2358ZM16.8373 36.5834H11.8152V20.4409H16.8373V36.5834Z" fill="#0077B5"/>
</svg>
