<svg width="37" height="37" viewBox="0 0 37 37" fill="none" xmlns="http://www.w3.org/2000/svg">
<path d="M21.77 17.5L27.7501 11.5137C28.1384 11.0724 28.344 10.4998 28.3253 9.91235C28.3065 9.32488 28.0647 8.76659 27.6491 8.35096C27.2335 7.93534 26.6752 7.69358 26.0877 7.67483C25.5002 7.65607 24.9277 7.86172 24.4864 8.24999L18.5001 14.2301L12.503 8.23149C12.2882 8.01668 12.0332 7.84629 11.7525 7.73004C11.4719 7.61379 11.1711 7.55396 10.8673 7.55396C10.5635 7.55396 10.2627 7.61379 9.98206 7.73004C9.7014 7.84629 9.44639 8.01668 9.23159 8.23149C9.01678 8.44629 8.84639 8.7013 8.73014 8.98196C8.61389 9.26261 8.55406 9.56342 8.55406 9.8672C8.55406 10.171 8.61389 10.4718 8.73014 10.7524C8.84639 11.0331 9.01678 11.2881 9.23159 11.5029L15.2302 17.5L9.25009 23.4847C9.01556 23.6944 8.82627 23.9497 8.6938 24.235C8.56133 24.5203 8.48847 24.8297 8.47966 25.1441C8.47086 25.4586 8.52631 25.7715 8.64262 26.0638C8.75892 26.3561 8.93364 26.6216 9.15608 26.844C9.37851 27.0664 9.64399 27.2412 9.93628 27.3575C10.2286 27.4738 10.5415 27.5292 10.856 27.5204C11.1704 27.5116 11.4798 27.4387 11.7651 27.3063C12.0504 27.1738 12.3057 26.9845 12.5153 26.75L18.5001 20.7699L24.4787 26.75C24.9125 27.1838 25.5009 27.4275 26.1144 27.4275C26.7279 27.4275 27.3163 27.1838 27.7501 26.75C28.1839 26.3162 28.4276 25.7278 28.4276 25.1143C28.4276 24.5008 28.1839 23.9124 27.7501 23.4786L21.77 17.5Z" fill="#FF5959"/>
</svg>
